<?xml version="1.0" standalone="no"?>
<!DOCTYPE svg PUBLIC "-//W3C//DTD SVG 20010904//EN"
 "http://www.w3.org/TR/2001/REC-SVG-20010904/DTD/svg10.dtd">
<svg version="1.0" xmlns="http://www.w3.org/2000/svg"
 width="512.000000pt" height="512.000000pt" viewBox="0 0 512.000000 512.000000"
 preserveAspectRatio="xMidYMid meet">

<g transform="translate(0.000000,512.000000) scale(0.100000,-0.100000)"
fill="#000000" stroke="none">
<path d="M1010 4160 c-506 -5 -558 -7 -587 -23 -55 -30 -103 -78 -131 -131
l-27 -51 0 -1395 0 -1395 27 -50 c38 -73 100 -125 169 -145 46 -14 4152 -14
4198 0 69 20 131 72 169 145 l27 50 0 1395 0 1395 -27 51 c-28 53 -76 101
-131 131 -29 16 -74 18 -502 21 -1066 5 -2665 7 -3185 2z m500 -661 l0 -561
-62 35 c-35 19 -146 76 -247 127 -170 85 -187 92 -229 87 -56 -6 -105 -53
-121 -115 -14 -52 -41 -228 -41 -269 l0 -33 -220 0 -220 0 0 574 c0 383 4 584
11 603 15 40 48 73 94 94 37 17 75 19 538 19 l497 0 0 -561z m320 -15 c0 -457
-3 -575 -12 -570 -75 31 -111 31 -180 1 -17 -7 -18 24 -18 569 l0 576 105 0
105 0 0 -576z m2815 557 c46 -21 79 -54 94 -94 7 -19 11 -220 11 -603 l0 -574
-1054 0 -1055 0 -5 58 c-11 102 -47 276 -62 300 -8 13 -29 32 -47 42 -61 37
-87 30 -346 -104 l-241 -123 0 558 0 559 1333 0 c1274 0 1334 -1 1372 -19z
m-3367 -1099 l262 -135 -7 -36 c-9 -40 -10 -105 -3 -165 l5 -39 -175 -100
c-96 -54 -221 -123 -277 -153 l-102 -55 -15 23 c-20 31 -44 179 -52 318 -9
172 25 461 58 481 16 10 13 11 306 -139z m1209 117 c44 -91 57 -467 23 -664
-24 -142 -30 -147 -119 -97 -37 20 -160 89 -274 152 l-208 115 8 35 c8 39 10
116 3 173 l-5 37 270 140 c149 77 275 138 280 136 6 -1 15 -14 22 -27z m-710
-251 c33 -37 43 -64 43 -118 0 -146 -131 -194 -179 -67 -35 91 13 207 84 207
20 0 39 -8 52 -22z m-972 -150 c2 -7 6 -57 8 -110 l5 -98 -224 0 -224 0 0 110
0 110 215 0 c164 0 217 -3 220 -12z m3945 -98 l0 -110 -1061 0 -1062 0 6 68
c4 37 7 86 7 110 l0 42 1055 0 1055 0 0 -110z m-3127 -86 c3 -4 -12 -27 -33
-52 -59 -67 -127 -173 -190 -297 -56 -109 -132 -309 -145 -379 -4 -20 -11 -36
-15 -36 -4 0 -21 31 -38 70 -49 107 -72 112 -186 39 l-79 -50 7 33 c12 61 87
282 114 337 l27 55 255 142 c140 79 260 143 266 144 6 0 14 -3 17 -6z m488
-141 l262 -147 25 -55 c30 -68 97 -272 107 -324 l7 -38 -78 51 c-114 72 -135
68 -185 -40 -31 -69 -49 -87 -49 -52 0 29 -76 242 -118 335 -54 116 -139 257
-202 335 -49 61 -60 82 -41 82 6 0 128 -66 272 -147z m-333 23 l52 -64 0 -616
0 -616 -105 0 -105 0 0 615 0 616 52 64 c28 36 52 65 53 65 1 0 25 -29 53 -64z
m-938 -25 c0 -57 63 -161 98 -161 9 0 12 -6 7 -17 -36 -93 -88 -260 -110 -356
l-28 -118 20 -27 c32 -44 59 -39 165 28 53 33 100 60 105 60 5 0 28 -44 53
-97 49 -108 69 -133 103 -133 43 0 57 22 82 125 32 136 79 272 130 380 l43 90
1 -522 1 -523 -497 0 c-463 0 -501 2 -538 19 -46 21 -79 54 -94 94 -7 19 -11
220 -11 603 l0 574 235 0 c223 0 235 -1 235 -19z m3910 -555 c0 -383 -4 -584
-11 -603 -15 -40 -48 -73 -94 -94 -38 -18 -98 -19 -1372 -19 l-1333 0 0 523 1
522 30 -59 c50 -95 98 -232 135 -376 35 -137 47 -160 89 -160 36 0 52 21 105
132 l51 107 92 -60 c126 -82 149 -86 183 -34 16 24 15 31 -11 143 -15 64 -47
173 -71 242 -31 88 -40 126 -31 129 32 11 74 71 86 125 l12 56 1070 0 1069 0
0 -574z"/>
<path d="M3536 3841 c-14 -15 -16 -35 -14 -112 3 -88 4 -94 28 -106 20 -10 29
-10 45 1 17 12 20 26 23 112 2 84 0 101 -15 111 -24 18 -47 16 -67 -6z"/>
<path d="M3817 3842 c-21 -23 -24 -179 -4 -204 20 -25 45 -28 69 -8 21 17 23
26 23 110 0 79 -3 94 -19 106 -27 19 -50 18 -69 -4z"/>
<path d="M4097 3842 c-21 -23 -24 -179 -4 -204 22 -28 47 -29 73 -3 21 22 24
33 24 105 0 67 -3 83 -20 100 -25 25 -52 26 -73 2z"/>
<path d="M4376 3838 c-11 -16 -16 -46 -16 -103 0 -92 12 -117 55 -117 43 0 55
25 55 117 0 90 -15 125 -55 125 -13 0 -31 -10 -39 -22z"/>
</g>
</svg>
